<svg xmlns="http://www.w3.org/2000/svg" width="1080" height="1350" viewBox="0 0 1080 1350">
<rect x="0" y="0" width="1080" height="1350" rx="0" fill="#0b1220"/>
<rect x="56" y="56" width="968" height="1238" rx="36" fill="#101a2f" stroke="#1f2a44"/>
<text x="100" y="110" fill="#e5e7eb" font-size="44" font-weight="700" font-family="-apple-system,BlinkMacSystemFont,Segoe UI,Roboto,Arial">课程表</text>
<text x="100" y="156" fill="#93a4c7" font-size="22" font-weight="400" font-family="-apple-system,BlinkMacSystemFont,Segoe UI,Roboto,Arial">更新 2026-03-14 21:59（北京）</text>
<rect x="88" y="220" width="904" height="420" rx="28" fill="#0f1b33" stroke="#1f2a44"/>
<text x="120" y="290" fill="#e5e7eb" font-size="30" font-weight="700" font-family="-apple-system,BlinkMacSystemFont,Segoe UI,Roboto,Arial">今日</text>
<text x="206" y="290" fill="#93a4c7" font-size="22" font-weight="400" font-family="-apple-system,BlinkMacSystemFont,Segoe UI,Roboto,Arial">2026-03-14（第2周 周六）</text>
<text x="120" y="360" fill="#34d399" font-size="32" font-weight="700" font-family="-apple-system,BlinkMacSystemFont,Segoe UI,Roboto,Arial">无课</text>
<rect x="88" y="680" width="904" height="640" rx="28" fill="#0f1b33" stroke="#1f2a44"/>
<text x="120" y="750" fill="#e5e7eb" font-size="30" font-weight="700" font-family="-apple-system,BlinkMacSystemFont,Segoe UI,Roboto,Arial">本周概览</text>
<text x="276" y="750" fill="#93a4c7" font-size="22" font-weight="400" font-family="-apple-system,BlinkMacSystemFont,Segoe UI,Roboto,Arial">2026-03-09 ~ 2026-03-15</text>
<text x="120" y="840" fill="#e5e7eb" font-size="24" font-weight="700" font-family="-apple-system,BlinkMacSystemFont,Segoe UI,Roboto,Arial">周一 03-09</text>
<rect x="820" y="814" width="140" height="40" rx="20" fill="#34d399"/>
<text x="858" y="842" fill="#06111f" font-size="20" font-weight="700" font-family="-apple-system,BlinkMacSystemFont,Segoe UI,Roboto,Arial">3 节</text>
<line x1="120" y1="882" x2="960" y2="882" stroke="#1f2a44"/>
<text x="120" y="912" fill="#e5e7eb" font-size="24" font-weight="700" font-family="-apple-system,BlinkMacSystemFont,Segoe UI,Roboto,Arial">周二 03-10</text>
<rect x="820" y="886" width="140" height="40" rx="20" fill="#34d399"/>
<text x="858" y="914" fill="#06111f" font-size="20" font-weight="700" font-family="-apple-system,BlinkMacSystemFont,Segoe UI,Roboto,Arial">4 节</text>
<line x1="120" y1="954" x2="960" y2="954" stroke="#1f2a44"/>
<text x="120" y="984" fill="#e5e7eb" font-size="24" font-weight="700" font-family="-apple-system,BlinkMacSystemFont,Segoe UI,Roboto,Arial">周三 03-11</text>
<rect x="820" y="958" width="140" height="40" rx="20" fill="#34d399"/>
<text x="858" y="986" fill="#06111f" font-size="20" font-weight="700" font-family="-apple-system,BlinkMacSystemFont,Segoe UI,Roboto,Arial">2 节</text>
<line x1="120" y1="1026" x2="960" y2="1026" stroke="#1f2a44"/>
<text x="120" y="1056" fill="#e5e7eb" font-size="24" font-weight="700" font-family="-apple-system,BlinkMacSystemFont,Segoe UI,Roboto,Arial">周四 03-12</text>
<rect x="820" y="1030" width="140" height="40" rx="20" fill="#34d399"/>
<text x="858" y="1058" fill="#06111f" font-size="20" font-weight="700" font-family="-apple-system,BlinkMacSystemFont,Segoe UI,Roboto,Arial">4 节</text>
<line x1="120" y1="1098" x2="960" y2="1098" stroke="#1f2a44"/>
<text x="120" y="1128" fill="#e5e7eb" font-size="24" font-weight="700" font-family="-apple-system,BlinkMacSystemFont,Segoe UI,Roboto,Arial">周五 03-13</text>
<rect x="820" y="1102" width="140" height="40" rx="20" fill="#34d399"/>
<text x="858" y="1130" fill="#06111f" font-size="20" font-weight="700" font-family="-apple-system,BlinkMacSystemFont,Segoe UI,Roboto,Arial">4 节</text>
<line x1="120" y1="1170" x2="960" y2="1170" stroke="#1f2a44"/>
<text x="120" y="1200" fill="#e5e7eb" font-size="24" font-weight="700" font-family="-apple-system,BlinkMacSystemFont,Segoe UI,Roboto,Arial">周六 03-14</text>
<rect x="820" y="1174" width="140" height="40" rx="20" fill="#334155"/>
<text x="858" y="1202" fill="#e5e7eb" font-size="20" font-weight="700" font-family="-apple-system,BlinkMacSystemFont,Segoe UI,Roboto,Arial">无课</text>
<line x1="120" y1="1242" x2="960" y2="1242" stroke="#1f2a44"/>
<text x="120" y="1272" fill="#e5e7eb" font-size="24" font-weight="700" font-family="-apple-system,BlinkMacSystemFont,Segoe UI,Roboto,Arial">周日 03-15</text>
<rect x="820" y="1246" width="140" height="40" rx="20" fill="#334155"/>
<text x="858" y="1274" fill="#e5e7eb" font-size="20" font-weight="700" font-family="-apple-system,BlinkMacSystemFont,Segoe UI,Roboto,Arial">无课</text>
<text x="120" y="1290" fill="#93a4c7" font-size="20" font-weight="400" font-family="-apple-system,BlinkMacSystemFont,Segoe UI,Roboto,Arial">提示：在飞书对我说 ‘今天课表/明天课表/课表 YYYY-MM-DD’</text>
</svg>